<?xml version="1.0" encoding="UTF-8" standalone="no"?>
<svg
   version="1.1"
   id="Layer_1"
   viewBox="0 0 70 70"
   xml:space="preserve"
   sodipodi:docname="binders_2.svg"
   inkscape:version="1.3.2 (091e20e, 2023-11-25, custom)"
   width="70"
   height="70"
   inkscape:export-filename="binders_2.png"
   inkscape:export-xdpi="175.54286"
   inkscape:export-ydpi="175.54286"
   xmlns:inkscape="http://www.inkscape.org/namespaces/inkscape"
   xmlns:sodipodi="http://sodipodi.sourceforge.net/DTD/sodipodi-0.dtd"
   xmlns="http://www.w3.org/2000/svg"
   xmlns:svg="http://www.w3.org/2000/svg"><defs
     id="defs20" /><sodipodi:namedview
     id="namedview20"
     pagecolor="#ffffff"
     bordercolor="#000000"
     borderopacity="0.25"
     inkscape:showpageshadow="2"
     inkscape:pageopacity="0.0"
     inkscape:pagecheckerboard="0"
     inkscape:deskcolor="#d1d1d1"
     inkscape:zoom="11.426471"
     inkscape:cx="33.956242"
     inkscape:cy="34.262548"
     inkscape:window-width="1920"
     inkscape:window-height="991"
     inkscape:window-x="-9"
     inkscape:window-y="-9"
     inkscape:window-maximized="1"
     inkscape:current-layer="Layer_1" /><style
     type="text/css"
     id="style1">
	.st0{fill:#108BE1;}
	.st1{fill:#0C6BC3;}
	.st2{fill:#FABB53;}
	.st3{fill:#F99944;}
	.st4{fill:#FFD77F;}
	.st5{fill:#D8642A;}
	.st6{fill:#E9293A;}
	.st7{fill:#D42032;}
	.st8{fill:#FE6559;}
	.st9{fill:#E8EDF2;}
	.st10{fill:#C4D3E4;}
	.st11{fill:#FFFFFF;}
	.st12{fill:#454545;}
	.st13{fill:#2C2C2C;}
	.st14{fill:#0C0C0C;}
	.st15{fill:#4DB6FF;}
	.st16{fill:#7D7D7D;}
	.st17{fill:#085BB6;}
	.st18{fill:#ABB8C2;}
	.st19{fill:#E9EDF4;}
	.st20{fill:#BA1037;}
</style><g
     id="g20"
     transform="matrix(1.0817904,0,0,1.0755886,-2.0214008,-1.9705869)"><g
       id="g6"
       transform="matrix(0.93125447,0,0,0.93125447,43.645757,2.5118241)"><path
         class="st0"
         d="m 23.332848,8.973237 v 50.053752 c 0,2.657341 -2.154011,4.811352 -4.820685,4.811352 H 6.8192272 c -2.6575685,0 -4.8206844,-2.154011 -4.8206844,-4.811352 V 8.973237 c 0,-2.6575685 2.163116,-4.8115783 4.8206844,-4.8115783 H 18.512163 c 2.666674,10e-8 4.820685,2.1540099 4.820685,4.8115783 z"
         id="path1" /><path
         class="st1"
         d="M 18.512163,4.1616588 H 12.454437 V 63.83834 h 6.057726 c 2.666674,0 4.820685,-2.154011 4.820685,-4.811351 V 8.973237 c 0,-2.6575684 -2.154011,-4.8115782 -4.820685,-4.8115782 z"
         id="path2" /><path
         class="st9"
         d="M 17.738159,11.835689 V 33.51511 c 0,1.146892 -0.932449,2.079338 -2.079342,2.079338 H 9.6725731 c -1.1468925,0 -2.0793414,-0.932445 -2.0793414,-2.079338 V 11.835689 c 0,-1.146893 0.9324489,-2.0793413 2.0793414,-2.0793413 h 5.9862439 c 1.146893,0 2.079342,0.9324483 2.079342,2.0793413 z"
         id="path3" /><path
         class="st12"
         d="m 17.738159,53.012745 v 0.158443 c 0,2.797345 -2.27512,5.072464 -5.072464,5.072464 -0.07467,0 -0.139776,0 -0.214445,-0.0093 C 11.136353,58.187653 9.9521256,57.628319 9.0850125,56.761204 8.1618977,55.838089 7.5932317,54.569862 7.5932317,53.171188 v -0.158443 c 0,-2.722675 2.163116,-4.951355 4.8580183,-5.063358 0.07467,-0.0091 0.139776,-0.0091 0.214445,-0.0091 1.398672,0 2.666675,0.568668 3.580456,1.491783 0.923342,0.91378 1.492008,2.182011 1.492008,3.580681 z"
         id="path4" /><path
         class="st13"
         d="m 17.738159,53.012745 v 0.158443 c 0,2.797345 -2.27512,5.072464 -5.072464,5.072464 -0.07467,0 -0.139776,0 -0.214445,-0.0093 V 47.949387 c 0.07467,-0.0091 0.139776,-0.0091 0.214445,-0.0091 1.398672,0 2.666675,0.568668 3.580456,1.491783 0.923342,0.91378 1.492008,2.182011 1.492008,3.580681 z"
         id="path5" /><path
         class="st10"
         d="M 17.738159,11.835689 V 33.51511 c 0,1.146892 -0.932449,2.079338 -2.079342,2.079338 H 12.45125 V 9.7563477 h 3.207567 c 1.146893,0 2.079342,0.9324483 2.079342,2.0793413 z"
         id="path6" /></g><g
       id="g12"
       transform="matrix(0.93125447,0,0,0.93125447,2.6753581,2.5118241)"><path
         class="st2"
         d="m 44.667152,8.973237 v 50.053752 c 0,2.657341 -2.15401,4.811352 -4.820682,4.811352 H 28.153532 c -2.657568,0 -4.820684,-2.154011 -4.820684,-4.811352 V 8.973237 c 0,-2.6575685 2.163116,-4.8115783 4.820684,-4.8115783 H 39.84647 c 2.666672,10e-8 4.820682,2.1540099 4.820682,4.8115783 z"
         id="path7"
         style="fill:#00c19c" /><path
         class="st3"
         d="M 39.84647,4.1616588 H 33.788742 V 63.83834 h 6.057728 c 2.666672,0 4.820682,-2.154011 4.820682,-4.811351 V 8.973237 c 0,-2.6575684 -2.15401,-4.8115782 -4.820682,-4.8115782 z"
         id="path8"
         style="fill:#009c7f" /><path
         class="st9"
         d="M 39.072464,11.835689 V 33.51511 c 0,1.146892 -0.932449,2.079338 -2.079342,2.079338 h -5.986244 c -1.146893,0 -2.079342,-0.932445 -2.079342,-2.079338 V 11.835689 c 0,-1.146893 0.932449,-2.0793413 2.079342,-2.0793413 h 5.986244 c 1.146893,0 2.079342,0.9324483 2.079342,2.0793413 z"
         id="path9" /><path
         class="st12"
         d="m 39.072464,53.012745 v 0.158443 c 0,2.797345 -2.27512,5.072464 -5.072464,5.072464 -0.07467,0 -0.139774,0 -0.214443,-0.0093 -1.3149,-0.04667 -2.499127,-0.605999 -3.36624,-1.473114 -0.923114,-0.923115 -1.491781,-2.191342 -1.491781,-3.590016 v -0.158443 c 0,-2.722675 2.163117,-4.951355 4.858021,-5.063358 0.07467,-0.0091 0.139774,-0.0091 0.214443,-0.0091 1.398674,0 2.666676,0.568668 3.580456,1.491783 0.92334,0.91378 1.492008,2.182011 1.492008,3.580681 z"
         id="path10" /><path
         class="st13"
         d="m 39.072464,53.012745 v 0.158443 c 0,2.797345 -2.27512,5.072464 -5.072464,5.072464 -0.07467,0 -0.139774,0 -0.214443,-0.0093 V 47.949387 c 0.07467,-0.0091 0.139774,-0.0091 0.214443,-0.0091 1.398674,0 2.666676,0.568668 3.580456,1.491783 0.92334,0.91378 1.492008,2.182011 1.492008,3.580681 z"
         id="path11" /><path
         class="st10"
         d="M 39.072464,11.835689 V 33.51511 c 0,1.146892 -0.932449,2.079338 -2.079342,2.079338 H 33.785557 V 9.7563477 h 3.207565 c 1.146893,0 2.079342,0.9324483 2.079342,2.0793413 z"
         id="path12" /></g><g
       id="g18"
       transform="matrix(0.93125447,0,0,0.93125447,-38.282171,2.5118241)"><path
         class="st6"
         d="m 66.001457,8.973237 v 50.053752 c 0,2.657341 -2.154011,4.811352 -4.820682,4.811352 h -11.69294 c -2.657566,0 -4.820683,-2.154011 -4.820683,-4.811352 V 8.973237 c 0,-2.6575685 2.163117,-4.8115783 4.820683,-4.8115783 h 11.69294 c 2.666671,10e-8 4.820682,2.1540099 4.820682,4.8115783 z"
         id="path13"
         style="fill:#e35a54" /><path
         class="st7"
         d="M 61.180775,4.1616588 H 55.123047 V 63.83834 h 6.057728 c 2.666672,0 4.820682,-2.154011 4.820682,-4.811351 V 8.973237 c 0,-2.6575684 -2.154011,-4.8115782 -4.820682,-4.8115782 z"
         id="path14"
         style="fill:#e74d3c" /><path
         class="st9"
         d="M 60.406769,11.835689 V 33.51511 c 0,1.146892 -0.93245,2.079338 -2.079342,2.079338 h -5.986244 c -1.146893,0 -2.079342,-0.932445 -2.079342,-2.079338 V 11.835689 c 0,-1.146893 0.932449,-2.0793413 2.079342,-2.0793413 h 5.986244 c 1.146892,0 2.079342,0.9324483 2.079342,2.0793413 z"
         id="path15" /><path
         class="st12"
         d="m 60.406769,53.012745 v 0.158443 c 0,2.797345 -2.27512,5.072464 -5.072464,5.072464 -0.07467,0 -0.139778,0 -0.214443,-0.0093 -1.3149,-0.04667 -2.499127,-0.605999 -3.366242,-1.473114 -0.923115,-0.923115 -1.491779,-2.191342 -1.491779,-3.590016 v -0.158443 c 0,-2.722675 2.163116,-4.951355 4.858021,-5.063358 0.07467,-0.0091 0.139774,-0.0091 0.214443,-0.0091 1.398674,0 2.666675,0.568668 3.580456,1.491783 0.923339,0.91378 1.492008,2.182011 1.492008,3.580681 z"
         id="path16" /><path
         class="st13"
         d="m 60.406769,53.012745 v 0.158443 c 0,2.797345 -2.27512,5.072464 -5.072464,5.072464 -0.07467,0 -0.139778,0 -0.214443,-0.0093 V 47.949387 c 0.07467,-0.0091 0.139774,-0.0091 0.214443,-0.0091 1.398674,0 2.666675,0.568668 3.580456,1.491783 0.923339,0.91378 1.492008,2.182011 1.492008,3.580681 z"
         id="path17" /><path
         class="st10"
         d="M 60.406769,11.835689 V 33.51511 c 0,1.146892 -0.93245,2.079338 -2.079342,2.079338 H 55.119862 V 9.7563477 h 3.207565 c 1.146892,0 2.079342,0.9324483 2.079342,2.0793413 z"
         id="path18" /></g><path
       class="st4"
       d="m 28.330039,18.381725 v 13.955998 c 0,0.810206 -0.65119,1.461591 -1.461396,1.461591 -0.802257,0 -1.453641,-0.651385 -1.453641,-1.461591 V 18.381725 c 0,-0.810207 0.651384,-1.461397 1.453641,-1.461397 0.810206,0 1.461396,0.65119 1.461396,1.461397 z"
       id="path19"
       style="fill:#00e0b5;stroke-width:0.931254" /><path
       class="st15"
       d="m 50.724059,39.939985 v 8.491192 c 0,0.810204 -0.651191,1.46159 -1.461398,1.46159 -0.802256,0 -1.45364,-0.651386 -1.45364,-1.46159 v -8.491192 c 0,-0.810209 0.651384,-1.461399 1.45364,-1.461399 0.810207,0 1.461398,0.65119 1.461398,1.461399 z"
       id="path20"
       style="stroke-width:0.931254" /></g></svg>
